<svg width="1489.3" height="72" viewBox="0 0 1489.3 72" xmlns="http://www.w3.org/2000/svg"><g id="svgGroup" stroke-linecap="round" fill-rule="evenodd" font-size="9pt" stroke="#000" stroke-width="0.25mm" fill="none" style="stroke:#000;stroke-width:0.25mm;fill:none"><path d="M 287.4 36.6 L 287.4 63 L 286.4 63 L 286.4 9 L 287.4 9 L 287.4 35.6 L 309.1 35.6 L 320.6 9 L 321.7 9 L 310.2 35.6 L 314.3 35.6 Q 320.246 35.6 323.246 37.785 A 7.784 7.784 0 0 1 323.4 37.9 A 7.133 7.133 0 0 1 325.826 41.405 Q 326.4 43.125 326.4 45.4 L 326.4 63 L 325.4 63 L 325.4 45.4 A 12.892 12.892 0 0 0 325.179 42.921 Q 324.904 41.525 324.291 40.467 A 5.908 5.908 0 0 0 322.6 38.6 A 9.176 9.176 0 0 0 320.061 37.362 Q 317.695 36.6 314.3 36.6 L 287.4 36.6 Z M 1346.4 62 L 1379.1 62 L 1379.1 63 L 1345.4 63 L 1345.4 9 L 1379.1 9 L 1379.1 10 L 1346.4 10 L 1346.4 35.1 L 1371 35.1 L 1371 36.1 L 1346.4 36.1 L 1346.4 62 Z M 526.9 9 L 549.1 9 L 549.1 10 L 526.9 10 A 12.463 12.463 0 0 0 524.101 10.297 A 8.441 8.441 0 0 0 520.2 12.3 A 7.499 7.499 0 0 0 517.706 17.768 A 9.566 9.566 0 0 0 517.7 18.1 L 517.7 26.3 Q 517.7 29.8 519.1 31.2 A 6.171 6.171 0 0 0 521.435 32.647 A 8.334 8.334 0 0 0 522.8 33 L 543.9 37.3 Q 546.9 37.9 548.85 39.9 A 5.461 5.461 0 0 1 549.96 41.653 Q 550.65 43.325 550.773 45.927 A 24.86 24.86 0 0 1 550.8 47.1 L 550.8 52.9 A 10.559 10.559 0 0 1 550.184 56.569 A 9.342 9.342 0 0 1 547.8 60.15 A 10.059 10.059 0 0 1 542.975 62.659 A 14.894 14.894 0 0 1 539.7 63 L 514.8 63 L 514.8 62 L 539.7 62 Q 544.3 62 547.05 59.45 A 8.457 8.457 0 0 0 549.793 53.287 A 11.336 11.336 0 0 0 549.8 52.9 L 549.8 47.1 Q 549.8 43.358 548.754 41.486 A 4.189 4.189 0 0 0 548.15 40.65 A 7.59 7.59 0 0 0 545.489 38.848 A 10.33 10.33 0 0 0 543.7 38.3 L 522.6 34 A 9.707 9.707 0 0 1 520.405 33.316 A 7.531 7.531 0 0 1 518.35 31.95 Q 516.867 30.557 516.717 27.105 A 18.519 18.519 0 0 1 516.7 26.3 L 516.7 18.1 A 9.306 9.306 0 0 1 517.275 14.773 A 8.312 8.312 0 0 1 519.5 11.55 A 9.543 9.543 0 0 1 524.067 9.276 A 13.811 13.811 0 0 1 526.9 9 Z M 661.4 9 L 683.6 9 L 683.6 10 L 661.4 10 A 12.463 12.463 0 0 0 658.601 10.297 A 8.441 8.441 0 0 0 654.7 12.3 A 7.499 7.499 0 0 0 652.206 17.768 A 9.566 9.566 0 0 0 652.2 18.1 L 652.2 26.3 Q 652.2 29.8 653.6 31.2 A 6.171 6.171 0 0 0 655.935 32.647 A 8.334 8.334 0 0 0 657.3 33 L 678.4 37.3 Q 681.4 37.9 683.35 39.9 A 5.461 5.461 0 0 1 684.46 41.653 Q 685.15 43.325 685.273 45.927 A 24.86 24.86 0 0 1 685.3 47.1 L 685.3 52.9 A 10.559 10.559 0 0 1 684.684 56.569 A 9.342 9.342 0 0 1 682.3 60.15 A 10.059 10.059 0 0 1 677.475 62.659 A 14.894 14.894 0 0 1 674.2 63 L 649.3 63 L 649.3 62 L 674.2 62 Q 678.8 62 681.55 59.45 A 8.457 8.457 0 0 0 684.293 53.287 A 11.336 11.336 0 0 0 684.3 52.9 L 684.3 47.1 Q 684.3 43.358 683.254 41.486 A 4.189 4.189 0 0 0 682.65 40.65 A 7.59 7.59 0 0 0 679.989 38.848 A 10.33 10.33 0 0 0 678.2 38.3 L 657.1 34 A 9.707 9.707 0 0 1 654.905 33.316 A 7.531 7.531 0 0 1 652.85 31.95 Q 651.367 30.557 651.217 27.105 A 18.519 18.519 0 0 1 651.2 26.3 L 651.2 18.1 A 9.306 9.306 0 0 1 651.775 14.773 A 8.312 8.312 0 0 1 654 11.55 A 9.543 9.543 0 0 1 658.567 9.276 A 13.811 13.811 0 0 1 661.4 9 Z M 1137.7 30.6 L 1137.7 9 L 1138.7 9 L 1138.7 30.6 A 30.457 30.457 0 0 0 1138.925 34.359 A 26.815 26.815 0 0 0 1139.1 35.55 A 22.363 22.363 0 0 0 1139.839 38.616 A 19.271 19.271 0 0 0 1140.3 39.9 L 1146.9 55.9 A 24.371 24.371 0 0 0 1147.823 58.012 Q 1148.33 59.031 1148.889 59.871 A 13.808 13.808 0 0 0 1149.15 60.25 Q 1150.337 61.912 1152.921 61.996 A 8.592 8.592 0 0 0 1153.2 62 L 1162 62 A 7.044 7.044 0 0 0 1163.526 61.846 Q 1164.477 61.635 1165.172 61.134 A 3.807 3.807 0 0 0 1166.05 60.25 Q 1167.175 58.674 1168.098 56.41 A 27.752 27.752 0 0 0 1168.3 55.9 L 1174.9 39.9 A 20.489 20.489 0 0 0 1175.867 36.738 A 23.996 23.996 0 0 0 1176.1 35.55 A 28.645 28.645 0 0 0 1176.481 31.726 A 32.761 32.761 0 0 0 1176.5 30.6 L 1176.5 9 L 1177.5 9 L 1177.5 30.6 A 39.078 39.078 0 0 1 1177.39 33.603 A 30.524 30.524 0 0 1 1177.15 35.75 Q 1176.8 38.1 1175.9 40.3 L 1169.3 56.3 Q 1168.227 58.893 1166.914 60.687 A 14.259 14.259 0 0 1 1166.6 61.1 A 4.767 4.767 0 0 1 1164.021 62.755 Q 1163.114 63 1162 63 L 1153.2 63 A 8.002 8.002 0 0 1 1151.419 62.814 Q 1149.631 62.406 1148.6 61.1 A 16.388 16.388 0 0 1 1147.26 59.099 Q 1146.673 58.077 1146.142 56.868 A 28.736 28.736 0 0 1 1145.9 56.3 L 1139.3 40.3 Q 1138.4 38.1 1138.05 35.75 Q 1137.7 33.4 1137.7 30.6 Z M 389.3 62 L 389.3 63 L 357.5 63 L 357.5 62 L 373 62 L 373 10 L 357.5 10 L 357.5 9 L 389.3 9 L 389.3 10 L 374 10 L 374 62 L 389.3 62 Z M 1106.6 62 L 1106.6 63 L 1074.8 63 L 1074.8 62 L 1090.3 62 L 1090.3 10 L 1074.8 10 L 1074.8 9 L 1106.6 9 L 1106.6 10 L 1091.3 10 L 1091.3 62 L 1106.6 62 Z M 1 39.8 L 1 63 L 0 63 L 0 9 L 22.8 9 Q 26.834 9 29.416 10.572 A 8.288 8.288 0 0 1 31.4 12.25 A 11.444 11.444 0 0 1 34.064 18.317 A 15.42 15.42 0 0 1 34.2 20.4 L 34.2 27.3 A 28.975 28.975 0 0 1 34.045 30.393 Q 33.769 32.96 33 34.85 A 6.525 6.525 0 0 1 29.779 38.271 A 9.776 9.776 0 0 1 28.2 38.9 L 29.3 38.9 A 21.558 21.558 0 0 1 32.649 39.142 Q 34.399 39.418 35.795 40.008 A 8.992 8.992 0 0 1 38.4 41.65 Q 41.4 44.4 41.4 49.6 L 41.4 63 L 40.4 63 L 40.4 49.6 A 14.132 14.132 0 0 0 40.136 46.777 Q 39.556 43.934 37.7 42.25 Q 35.737 40.468 32.187 39.982 A 21.333 21.333 0 0 0 29.3 39.8 L 1 39.8 Z M 601.2 45.9 L 600.5 45.9 L 600.5 63 L 599.5 63 L 599.5 45.9 L 598.5 45.9 A 8.314 8.314 0 0 1 596.046 45.547 A 7.366 7.366 0 0 1 594.55 44.9 A 8.681 8.681 0 0 1 592.995 43.747 Q 592.334 43.141 591.696 42.348 A 16.602 16.602 0 0 1 591.2 41.7 L 581.5 28.2 Q 580.4 26.7 580.2 24.7 Q 580 22.7 580 20.5 L 580 9 L 581 9 L 581 20.5 Q 581 22.6 581.2 24.45 Q 581.4 26.3 582.4 27.8 L 592.1 41.3 A 9.499 9.499 0 0 0 593.199 42.703 Q 594.077 43.619 595.1 44.1 A 8.447 8.447 0 0 0 597.172 44.778 A 7.332 7.332 0 0 0 598.5 44.9 L 601.2 44.9 A 7.332 7.332 0 0 0 603.595 44.516 A 6.735 6.735 0 0 0 604.65 44.05 A 7.971 7.971 0 0 0 605.997 43.105 Q 606.856 42.369 607.7 41.3 L 617.7 27.8 Q 618.7 26.5 618.9 24.55 Q 619.1 22.6 619.1 20.5 L 619.1 9 L 620.1 9 L 620.1 20.5 Q 620.1 22.7 619.95 24.65 Q 619.8 26.6 618.6 28.2 L 608.6 41.7 Q 607 43.9 605.25 44.9 A 7.565 7.565 0 0 1 602.45 45.821 A 9.613 9.613 0 0 1 601.2 45.9 Z M 964.7 62 L 981.4 62 L 981.4 63 L 964.7 63 Q 955 63 951.85 60 A 8.818 8.818 0 0 1 949.753 56.775 Q 949.194 55.348 948.931 53.553 A 23.957 23.957 0 0 1 948.7 50.1 L 948.7 22.1 Q 948.7 15 951.9 12 A 5.941 5.941 0 0 1 951.998 11.91 Q 955.245 9 964.7 9 L 981.4 9 L 981.4 10 L 964.7 10 Q 958.009 10 954.613 11.59 A 7.511 7.511 0 0 0 952.8 12.75 A 8.017 8.017 0 0 0 950.708 15.824 Q 950.173 17.159 949.922 18.846 A 22.177 22.177 0 0 0 949.7 22.1 L 949.7 50.1 A 22.242 22.242 0 0 0 949.912 53.285 Q 950.475 57.168 952.539 59.15 A 6.768 6.768 0 0 0 952.7 59.3 A 7.627 7.627 0 0 0 955.01 60.665 Q 957.362 61.599 961.167 61.88 A 48.235 48.235 0 0 0 964.7 62 Z M 916.1 63 L 915.1 63 L 915.1 45.8 L 876.1 45.8 L 876.1 63 L 875.1 63 L 875.1 41.7 A 30.435 30.435 0 0 1 875.242 38.692 A 24.028 24.028 0 0 1 875.55 36.55 Q 876 34.2 876.8 32 L 883.2 15.6 A 25.355 25.355 0 0 1 884.22 13.322 Q 884.804 12.18 885.456 11.241 A 14.814 14.814 0 0 1 885.7 10.9 Q 887.1 9 890.5 9 L 900.3 9 Q 902.337 9 903.63 9.724 A 3.975 3.975 0 0 1 904.95 10.9 Q 906.097 12.514 907.136 14.85 A 35.513 35.513 0 0 1 907.5 15.7 L 914.4 32 Q 915.2 34.2 915.65 36.55 A 24.92 24.92 0 0 1 916.026 39.499 A 31.597 31.597 0 0 1 916.1 41.7 L 916.1 63 Z M 1250 63 L 1249 63 L 1249 45.8 L 1210 45.8 L 1210 63 L 1209 63 L 1209 41.7 A 30.435 30.435 0 0 1 1209.142 38.692 A 24.028 24.028 0 0 1 1209.45 36.55 Q 1209.9 34.2 1210.7 32 L 1217.1 15.6 A 25.355 25.355 0 0 1 1218.12 13.322 Q 1218.704 12.18 1219.356 11.241 A 14.814 14.814 0 0 1 1219.6 10.9 Q 1221 9 1224.4 9 L 1234.2 9 Q 1236.237 9 1237.53 9.724 A 3.975 3.975 0 0 1 1238.85 10.9 Q 1239.997 12.514 1241.036 14.85 A 35.513 35.513 0 0 1 1241.4 15.7 L 1248.3 32 Q 1249.1 34.2 1249.55 36.55 A 24.92 24.92 0 0 1 1249.926 39.499 A 31.597 31.597 0 0 1 1250 41.7 L 1250 63 Z M 236.3 63 L 235.3 63 L 235.3 10 L 214.8 10 L 214.8 9 L 256.8 9 L 256.8 10 L 236.3 10 L 236.3 63 Z M 437 63 L 436 63 L 436 10 L 415.5 10 L 415.5 9 L 457.5 9 L 457.5 10 L 437 10 L 437 63 Z M 1028.2 63 L 1027.2 63 L 1027.2 10 L 1006.7 10 L 1006.7 9 L 1048.7 9 L 1048.7 10 L 1028.2 10 L 1028.2 63 Z M 1295.3 63 L 1294.3 63 L 1294.3 10 L 1273.8 10 L 1273.8 9 L 1315.8 9 L 1315.8 10 L 1295.3 10 L 1295.3 63 Z M 1435 63 L 1410.8 63 L 1410.8 9 L 1435 9 Q 1438.347 9 1440.854 9.474 A 16.663 16.663 0 0 1 1443.25 10.1 Q 1446.4 11.2 1448.1 13.05 Q 1449.8 14.9 1450.4 17.45 A 22.834 22.834 0 0 1 1450.961 21.45 A 26.796 26.796 0 0 1 1451 22.9 L 1451 49.4 A 26.966 26.966 0 0 1 1450.785 52.869 A 22.392 22.392 0 0 1 1450.45 54.8 Q 1449.9 57.3 1448.2 59.1 A 9.018 9.018 0 0 1 1446.314 60.6 Q 1445.428 61.139 1444.336 61.575 A 17.578 17.578 0 0 1 1443.3 61.95 A 18.24 18.24 0 0 1 1440.648 62.587 Q 1439.27 62.819 1437.655 62.921 A 42.367 42.367 0 0 1 1435 63 Z M 1435 10 L 1411.8 10 L 1411.8 62 L 1435 62 Q 1439.8 62 1442.75 61.05 A 14.661 14.661 0 0 0 1444.773 60.239 Q 1445.82 59.72 1446.619 59.072 A 7.717 7.717 0 0 0 1447.3 58.45 Q 1448.9 56.8 1449.45 54.45 A 20.985 20.985 0 0 0 1449.946 51.053 A 24.975 24.975 0 0 0 1450 49.4 L 1450 22.9 A 21.691 21.691 0 0 0 1449.669 19.057 A 19.158 19.158 0 0 0 1449.4 17.8 A 9.278 9.278 0 0 0 1447.938 14.594 A 8.837 8.837 0 0 0 1447.2 13.7 A 8.706 8.706 0 0 0 1445.403 12.26 Q 1444.217 11.531 1442.65 11 Q 1439.7 10 1435 10 Z M 113.1 21.3 L 113.1 50.8 A 13.584 13.584 0 0 1 112.247 55.698 A 12.155 12.155 0 0 1 108.8 60.55 Q 105.232 63.662 96.568 64.191 A 61.886 61.886 0 0 1 92.8 64.3 Q 83.86 64.3 79.299 62.111 A 10.207 10.207 0 0 1 76.9 60.55 A 12.32 12.32 0 0 1 72.716 51.541 A 16.561 16.561 0 0 1 72.7 50.8 L 72.7 21.3 Q 72.7 15.3 76.9 11.55 A 11.09 11.09 0 0 1 80.251 9.575 Q 84.751 7.8 92.8 7.8 Q 104.5 7.8 108.8 11.55 A 12.191 12.191 0 0 1 113.079 20.467 A 16.108 16.108 0 0 1 113.1 21.3 Z M 186.8 21.3 L 186.8 50.8 A 13.584 13.584 0 0 1 185.947 55.698 A 12.155 12.155 0 0 1 182.5 60.55 Q 178.932 63.662 170.268 64.191 A 61.886 61.886 0 0 1 166.5 64.3 Q 157.56 64.3 152.999 62.111 A 10.207 10.207 0 0 1 150.6 60.55 A 12.32 12.32 0 0 1 146.416 51.541 A 16.561 16.561 0 0 1 146.4 50.8 L 146.4 21.3 Q 146.4 15.3 150.6 11.55 A 11.09 11.09 0 0 1 153.951 9.575 Q 158.451 7.8 166.5 7.8 Q 178.2 7.8 182.5 11.55 A 12.191 12.191 0 0 1 186.779 20.467 A 16.108 16.108 0 0 1 186.8 21.3 Z M 73.7 21.3 L 73.7 50.8 Q 73.7 56.4 77.7 59.85 Q 80.94 62.644 88.836 63.175 A 59.217 59.217 0 0 0 92.8 63.3 Q 101.475 63.3 105.874 61.193 A 9.975 9.975 0 0 0 108 59.85 A 11.114 11.114 0 0 0 112.07 51.747 A 14.578 14.578 0 0 0 112.1 50.8 L 112.1 21.3 Q 112.1 15.7 108 12.25 A 11.016 11.016 0 0 0 104.803 10.449 Q 100.475 8.8 92.8 8.8 Q 84.349 8.8 80.014 10.8 A 9.807 9.807 0 0 0 77.7 12.25 A 11.224 11.224 0 0 0 73.724 20.438 A 15.005 15.005 0 0 0 73.7 21.3 Z M 147.4 21.3 L 147.4 50.8 Q 147.4 56.4 151.4 59.85 Q 154.64 62.644 162.536 63.175 A 59.217 59.217 0 0 0 166.5 63.3 Q 175.175 63.3 179.574 61.193 A 9.975 9.975 0 0 0 181.7 59.85 A 11.114 11.114 0 0 0 185.77 51.747 A 14.578 14.578 0 0 0 185.8 50.8 L 185.8 21.3 Q 185.8 15.7 181.7 12.25 A 11.016 11.016 0 0 0 178.503 10.449 Q 174.175 8.8 166.5 8.8 Q 158.049 8.8 153.714 10.8 A 9.807 9.807 0 0 0 151.4 12.25 A 11.224 11.224 0 0 0 147.424 20.438 A 15.005 15.005 0 0 0 147.4 21.3 Z M 756.9 72 L 767.3 0 L 768.3 0 L 757.9 72 L 756.9 72 Z M 791.6 72 L 802 0 L 803 0 L 792.6 72 L 791.6 72 Z M 876.1 41.7 L 876.1 44.8 L 915.1 44.8 L 915.1 41.7 Q 915.1 39 914.65 36.7 A 32.581 32.581 0 0 0 913.913 33.679 A 28.035 28.035 0 0 0 913.5 32.4 L 906.6 16.1 Q 905.659 13.876 904.645 12.274 A 17.074 17.074 0 0 0 904.3 11.75 Q 903.1 10 900.3 10 L 890.5 10 A 8.023 8.023 0 0 0 888.974 10.135 Q 887.167 10.485 886.3 11.75 A 18.198 18.198 0 0 0 885.184 13.621 Q 884.616 14.711 884.1 16 L 877.7 32.4 A 29.845 29.845 0 0 0 876.807 35.499 A 34.779 34.779 0 0 0 876.55 36.7 A 24.062 24.062 0 0 0 876.163 39.731 A 29.823 29.823 0 0 0 876.1 41.7 Z M 1210 41.7 L 1210 44.8 L 1249 44.8 L 1249 41.7 Q 1249 39 1248.55 36.7 A 32.581 32.581 0 0 0 1247.813 33.679 A 28.035 28.035 0 0 0 1247.4 32.4 L 1240.5 16.1 Q 1239.559 13.876 1238.545 12.274 A 17.074 17.074 0 0 0 1238.2 11.75 Q 1237 10 1234.2 10 L 1224.4 10 A 8.023 8.023 0 0 0 1222.874 10.135 Q 1221.067 10.485 1220.2 11.75 A 18.198 18.198 0 0 0 1219.084 13.621 Q 1218.516 14.711 1218 16 L 1211.6 32.4 A 29.845 29.845 0 0 0 1210.707 35.499 A 34.779 34.779 0 0 0 1210.45 36.7 A 24.062 24.062 0 0 0 1210.063 39.731 A 29.823 29.823 0 0 0 1210 41.7 Z M 22.8 10 L 1 10 L 1 38.9 L 22.8 38.9 Q 28.255 38.9 30.536 36.577 A 5.317 5.317 0 0 0 31.1 35.9 A 10.258 10.258 0 0 0 32.479 32.987 Q 32.885 31.657 33.062 30.056 A 24.157 24.157 0 0 0 33.2 27.4 L 33.2 20.4 A 13.566 13.566 0 0 0 32.811 17.066 A 9.873 9.873 0 0 0 30.65 12.9 A 7.961 7.961 0 0 0 27.038 10.595 Q 25.202 10 22.8 10 Z M 1488.3 36.8 L 1488.3 9 L 1489.3 9 L 1489.3 36.8 L 1488.3 36.8 Z M 482 63 L 481 63 L 481 53.5 L 482 53.5 L 482 63 Z M 1489.3 59.7 L 1489.3 64 L 1488.3 64 L 1488.3 59.7 L 1489.3 59.7 Z" vector-effect="non-scaling-stroke"/></g></svg>
