<svg width="1395.8099609375px" height="114.81746826171874px" xmlns="http://www.w3.org/2000/svg" viewBox="-447.90498046874995 17.591265869140628 1395.8099609375 114.81746826171874" style="background: rgba(0, 0, 0, 0); --darkreader-inline-bgimage: initial; --darkreader-inline-bgcolor:rgba(0, 0, 0, 0);" data-darkreader-inline-bgimage="" data-darkreader-inline-bgcolor="" preserveAspectRatio="xMidYMid"><defs><filter id="editing-jagged" x="-100%" y="-100%" width="300%" height="300%"><feTurbulence result="turb" baseFrequency="0.5" numOctaves="1" seed="1"></feTurbulence><feDisplacementMap in="SourceGraphic" in2="turb" scale="3.5"></feDisplacementMap></filter></defs><g filter="url(#editing-jagged)"><g transform="translate(-255.8749852180481, 103.12750053405762)"><path d="M40.30-17.25L40.30-17.25L49.27 0L31.05 0L24.29-15.39L20.70-15.39L20.70 0L4.14 0L4.14-51.75L30.22-51.75L30.22-51.75Q48.02-51.75 48.02-33.60L48.02-33.60L48.02-33.60Q48.02-21.18 40.30-17.25ZM24.50-38.50L24.50-38.50L20.70-38.50L20.70-28.15L24.50-28.15L24.50-28.15Q27.53-28.15 28.88-28.77L28.88-28.77L28.88-28.77Q30.22-29.39 30.22-31.60L30.22-31.60L30.22-35.05L30.22-35.05Q30.22-37.26 28.88-37.88L28.88-37.88L28.88-37.88Q27.53-38.50 24.50-38.50ZM53.41-20.70L53.41-20.70L53.41-20.70Q53.41-31.81 58.58-37.23L58.58-37.23L58.58-37.23Q63.76-42.64 75.35-42.64L75.35-42.64L75.35-42.64Q86.94-42.64 92.12-37.23L92.12-37.23L92.12-37.23Q97.29-31.81 97.29-20.70L97.29-20.70L97.29-20.70Q97.29-9.59 92.12-4.17L92.12-4.17L92.12-4.17Q86.94 1.24 75.35 1.24L75.35 1.24L75.35 1.24Q64.03 1.24 58.72-4.07L58.72-4.07L58.72-4.07Q53.41-9.38 53.41-20.70ZM71.21-27.05L71.21-27.05L71.21-10.83L73.76-10.83L73.76-10.83Q76.80-10.83 78.14-11.45L78.14-11.45L78.14-11.45Q79.49-12.08 79.49-14.35L79.49-14.35L79.49-30.57L76.94-30.57L76.94-30.57Q73.90-30.57 72.55-29.95L72.55-29.95L72.55-29.95Q71.21-29.33 71.21-27.05ZM102.26-20.70L102.26-20.70L102.26-20.70Q102.26-31.81 107.43-37.23L107.43-37.23L107.43-37.23Q112.61-42.64 124.20-42.64L124.20-42.64L124.20-42.64Q135.79-42.64 140.97-37.23L140.97-37.23L140.97-37.23Q146.14-31.81 146.14-20.70L146.14-20.70L146.14-20.70Q146.14-9.59 140.97-4.17L140.97-4.17L140.97-4.17Q135.79 1.24 124.20 1.24L124.20 1.24L124.20 1.24Q112.88 1.24 107.57-4.07L107.57-4.07L107.57-4.07Q102.26-9.38 102.26-20.70ZM120.06-27.05L120.06-27.05L120.06-10.83L122.61-10.83L122.61-10.83Q125.65-10.83 126.99-11.45L126.99-11.45L126.99-11.45Q128.34-12.08 128.34-14.35L128.34-14.35L128.34-30.57L125.79-30.57L125.79-30.57Q122.75-30.57 121.41-29.95L121.41-29.95L121.41-29.95Q120.06-29.33 120.06-27.05ZM154.42-7.80L154.42-30.71L150.28-30.71L150.28-41.40L154.42-41.40L154.42-48.02L170.98-52.16L170.98-41.40L176.71-41.40L176.71-30.71L170.98-30.71L170.98-11.87L170.98-11.87Q172.02-11.66 173.26-11.49L173.26-11.49L173.26-11.49Q174.50-11.32 175.88-11.25L175.88-11.25L175.12 0.90L175.12 0.90Q163.81 0.90 160.36-0.35L160.36-0.35L160.36-0.35Q157.46-1.38 155.94-3.00L155.94-3.00L155.94-3.00Q154.42-4.62 154.42-7.80L154.42-7.80ZM206.45 0L224.32 0L214.31-21.67L223.91-41.40L206.03-41.40L200.03-27.74L199.48-27.74L199.48-55.06L182.92-53.82L182.92 0L199.48 0L199.48-16.42L200.03-16.42L206.45 0ZM245.85-41.40L245.85 0L229.29 0L229.29-39.33L245.85-41.40ZM228.39-49.20L228.39-49.20L228.39-49.20Q228.39-51.06 228.80-52.34L228.80-52.34L228.80-52.34Q229.22-53.61 230.25-54.41L230.25-54.41L230.25-54.41Q231.29-55.20 233.08-55.55L233.08-55.55L233.08-55.55Q234.88-55.89 237.64-55.89L237.64-55.89L237.64-55.89Q240.40-55.89 242.16-55.55L242.16-55.55L242.16-55.55Q243.91-55.20 244.95-54.41L244.95-54.41L244.95-54.41Q245.98-53.61 246.40-52.34L246.40-52.34L246.40-52.34Q246.81-51.06 246.81-49.20L246.81-49.20L246.81-49.20Q246.81-47.33 246.40-46.09L246.40-46.09L246.40-46.09Q245.98-44.85 244.95-44.06L244.95-44.06L244.95-44.06Q243.91-43.26 242.16-42.95L242.16-42.95L242.16-42.95Q240.40-42.64 237.64-42.64L237.64-42.64L237.64-42.64Q235.63-42.64 233.94-42.78L233.94-42.78L233.94-42.78Q232.25-42.92 231.01-43.57L231.01-43.57L231.01-43.57Q229.77-44.23 229.08-45.54L229.08-45.54L229.08-45.54Q228.39-46.85 228.39-49.20ZM255.78-7.80L255.78-30.71L251.64-30.71L251.64-41.40L255.78-41.40L255.78-48.02L272.34-52.16L272.34-41.40L278.07-41.40L278.07-30.71L272.34-30.71L272.34-11.87L272.34-11.87Q273.38-11.66 274.62-11.49L274.62-11.49L274.62-11.49Q275.86-11.32 277.24-11.25L277.24-11.25L276.48 0.90L276.48 0.90Q265.17 0.90 261.72-0.35L261.72-0.35L261.72-0.35Q258.82-1.38 257.30-3.00L257.30-3.00L257.30-3.00Q255.78-4.62 255.78-7.80L255.78-7.80ZM289.39-12.28L289.39-12.28L289.39-12.28Q292.15-12.28 293.97-10.49L293.97-10.49L293.97-10.49Q295.80-8.69 295.80-5.80L295.80-5.80L295.80-5.80Q295.80-2.90 293.97-1.10L293.97-1.10L293.97-1.10Q292.15 0.69 289.39 0.69L289.39 0.69L289.39 0.69Q286.63 0.69 284.76-1.17L284.76-1.17L284.76-1.17Q282.90-3.04 282.90-5.80L282.90-5.80L282.90-5.80Q282.90-8.69 284.76-10.49L284.76-10.49L284.76-10.49Q286.63-12.28 289.39-12.28ZM300.63-0.90L300.63-0.90L302.98-14.56L302.98-14.56Q310.57-12.70 316.71-12.70L316.71-12.70L316.71-12.70Q319.81-12.70 322.20-12.80L322.20-12.80L322.20-12.80Q324.58-12.90 326.44-13.18L326.44-13.18L326.44-17.32L318.99-17.94L318.99-17.94Q313.95-18.42 310.57-19.60L310.57-19.60L310.57-19.60Q307.19-20.77 305.15-22.80L305.15-22.80L305.15-22.80Q303.12-24.84 302.25-27.70L302.25-27.70L302.25-27.70Q301.39-30.57 301.39-34.43L301.39-34.43L301.39-34.43Q301.39-39.74 302.50-43.30L302.50-43.30L302.50-43.30Q303.60-46.85 306.01-49.02L306.01-49.02L306.01-49.02Q308.43-51.20 312.26-52.10L312.26-52.10L312.26-52.10Q316.09-52.99 321.61-52.99L321.61-52.99L321.61-52.99Q332.58-52.99 341.48-50.92L341.48-50.92L339.41-37.67L339.41-37.67Q331.68-38.92 327.06-38.92L327.06-38.92L327.06-38.92Q322.44-38.92 319.19-38.50L319.19-38.50L319.19-34.43L325.13-33.88L325.13-33.88Q330.58-33.33 334.24-32.05L334.24-32.05L334.24-32.05Q337.89-30.77 340.14-28.70L340.14-28.70L340.14-28.70Q342.38-26.63 343.31-23.81L343.31-23.81L343.31-23.81Q344.24-20.98 344.24-17.32L344.24-17.32L344.24-17.32Q344.24-12.08 342.86-8.49L342.86-8.49L342.86-8.49Q341.48-4.90 339.55-3.04L339.55-3.04L339.55-3.04Q337.96-1.52 335.62-0.66L335.62-0.66L335.62-0.66Q333.27 0.21 330.65 0.62L330.65 0.62L330.65 0.62Q328.03 1.04 325.37 1.14L325.37 1.14L325.37 1.14Q322.71 1.24 320.57 1.24L320.57 1.24L320.57 1.24Q315.19 1.24 310.22 0.69L310.22 0.69L310.22 0.69Q305.26 0.14 300.63-0.90ZM364.60-51.75L346.31-51.75L361.21-14.08L361.21 0L377.77 0L377.77-14.08L392.68-51.75L374.39-51.75L369.77-33.53L369.15-33.53L364.60-51.75ZM394.75-0.90L394.75-0.90L397.09-14.56L397.09-14.56Q404.68-12.70 410.83-12.70L410.83-12.70L410.83-12.70Q413.93-12.70 416.31-12.80L416.31-12.80L416.31-12.80Q418.69-12.90 420.55-13.18L420.55-13.18L420.55-17.32L413.10-17.94L413.10-17.94Q408.07-18.42 404.68-19.60L404.68-19.60L404.68-19.60Q401.30-20.77 399.27-22.80L399.27-22.80L399.27-22.80Q397.23-24.84 396.37-27.70L396.37-27.70L396.37-27.70Q395.51-30.57 395.51-34.43L395.51-34.43L395.51-34.43Q395.51-39.74 396.61-43.30L396.61-43.30L396.61-43.30Q397.72-46.85 400.13-49.02L400.13-49.02L400.13-49.02Q402.55-51.20 406.38-52.10L406.38-52.10L406.38-52.10Q410.20-52.99 415.72-52.99L415.72-52.99L415.72-52.99Q426.70-52.99 435.60-50.92L435.60-50.92L433.53-37.67L433.53-37.67Q425.80-38.92 421.18-38.92L421.18-38.92L421.18-38.92Q416.55-38.92 413.31-38.50L413.31-38.50L413.31-34.43L419.24-33.88L419.24-33.88Q424.69-33.33 428.35-32.05L428.35-32.05L428.35-32.05Q432.01-30.77 434.25-28.70L434.25-28.70L434.25-28.70Q436.49-26.63 437.43-23.81L437.43-23.81L437.43-23.81Q438.36-20.98 438.36-17.32L438.36-17.32L438.36-17.32Q438.36-12.08 436.98-8.49L436.98-8.49L436.98-8.49Q435.60-4.90 433.66-3.04L433.66-3.04L433.66-3.04Q432.08-1.52 429.73-0.66L429.73-0.66L429.73-0.66Q427.39 0.21 424.76 0.62L424.76 0.62L424.76 0.62Q422.14 1.04 419.49 1.14L419.49 1.14L419.49 1.14Q416.83 1.24 414.69 1.24L414.69 1.24L414.69 1.24Q409.31 1.24 404.34 0.69L404.34 0.69L404.34 0.69Q399.37 0.14 394.75-0.90ZM479.07-51.75L465.27 0L478.24 0L492.04-51.75L479.07-51.75ZM514.12-51.75L500.32 0L513.29 0L527.09-51.75L514.12-51.75ZM556.07-32.29L561.25-32.29L561.25-34.57L561.25-34.57Q561.25-39.33 562.21-42.61L562.21-42.61L562.21-42.61Q563.18-45.89 565.28-47.92L565.28-47.92L565.28-47.92Q567.39-49.96 570.80-50.85L570.80-50.85L570.80-50.85Q574.22-51.75 579.19-51.75L579.19-51.75L579.19-41.40L579.19-41.40Q574.08-41.40 574.08-36.16L574.08-36.16L574.08-28.77L571.18-25.88L574.08-22.98L574.08-15.53L574.08-15.53Q574.08-10.28 579.19-10.28L579.19-10.28L579.19 0L579.19 0Q574.56 0 571.18-0.79L571.18-0.79L571.18-0.79Q567.80-1.59 565.59-3.55L565.59-3.55L565.59-3.55Q563.38-5.52 562.32-8.83L562.32-8.83L562.32-8.83Q561.25-12.14 561.25-17.18L561.25-17.18L561.25-19.46L556.07-19.46L556.07-32.29ZM599.82 0L601.68-8.21L615.34-8.21L617.27 0L634.73 0L621.35-51.75L595.75-51.75L582.36 0L599.82 0ZM608.10-35.88L608.99-35.88L612.31-21.39L604.72-21.39L608.10-35.88ZM672.27-14.84L672.27-14.84L673.51-0.90L673.51-0.90Q668.20 1.24 660.40 1.24L660.40 1.24L660.40 1.24Q653.02 1.24 648.19-0.38L648.19-0.38L648.19-0.38Q643.36-2.00 640.53-5.31L640.53-5.31L640.53-5.31Q637.70-8.63 636.56-13.73L636.56-13.73L636.56-13.73Q635.42-18.84 635.42-25.81L635.42-25.81L635.42-25.81Q635.42-32.57 636.49-37.64L636.49-37.64L636.49-37.64Q637.56-42.71 640.32-46.13L640.32-46.13L640.32-46.13Q643.08-49.54 647.81-51.27L647.81-51.27L647.81-51.27Q652.53-52.99 659.78-52.99L659.78-52.99L659.78-52.99Q661.37-52.99 663.33-52.82L663.33-52.82L663.33-52.82Q665.30-52.65 667.20-52.37L667.20-52.37L667.20-52.37Q669.09-52.10 670.78-51.72L670.78-51.72L670.78-51.72Q672.47-51.34 673.51-50.85L673.51-50.85L671.02-38.16L671.02-38.16Q665.50-39.33 661.16-39.33L661.16-39.33L661.16-39.33Q656.67-39.33 654.95-38.50L654.95-38.50L654.95-38.50Q653.22-37.67 653.22-35.19L653.22-35.19L653.22-13.52L653.22-13.52Q654.81-13.18 656.43-13.01L656.43-13.01L656.43-13.01Q658.05-12.83 659.78-12.83L659.78-12.83L659.78-12.83Q666.68-12.83 672.27-14.84ZM716.15-38.50L716.15-51.75L675.58-51.75L675.58-38.50L687.58-38.50L687.58 0L704.14 0L704.14-38.50L716.15-38.50ZM720.70 0L737.26 0L737.26-51.75L720.70-51.75L720.70 0ZM773.77-51.75L766.66-18.91L765.90-18.91L758.86-51.75L741.40-51.75L754.24 0L778.39 0L791.22-51.75L773.77-51.75ZM807.71 0L809.58-8.21L823.24-8.21L825.17 0L842.63 0L829.24-51.75L803.64-51.75L790.26 0L807.71 0ZM815.99-35.88L816.89-35.88L820.20-21.39L812.61-21.39L815.99-35.88ZM882.65-38.50L882.65-51.75L842.08-51.75L842.08-38.50L854.08-38.50L854.08 0L870.64 0L870.64-38.50L882.65-38.50ZM920.32-19.53L920.32-31.53L903.76-31.53L903.76-38.50L921.56-38.50L923.63-51.75L887.20-51.75L887.20 0L924.05 0L924.05-13.25L903.76-13.25L903.76-19.53L920.32-19.53ZM954.27 0L954.27 0L931.09 0L931.09-51.75L954.27-51.75L954.27-51.75Q961.24-51.75 965.93-50.34L965.93-50.34L965.93-50.34Q970.62-48.92 973.45-45.82L973.45-45.82L973.45-45.82Q976.28-42.71 977.49-37.81L977.49-37.81L977.49-37.81Q978.70-32.91 978.70-25.94L978.70-25.94L978.70-25.94Q978.70-18.98 977.49-14.04L977.49-14.04L977.49-14.04Q976.28-9.11 973.45-6.00L973.45-6.00L973.45-6.00Q970.62-2.90 965.93-1.45L965.93-1.45L965.93-1.45Q961.24 0 954.27 0ZM954.55-38.50L954.55-38.50L947.65-38.50L947.65-13.25L954.55-13.25L954.55-13.25Q958.00-13.25 959.48-14.04L959.48-14.04L959.48-14.04Q960.96-14.84 960.96-17.66L960.96-17.66L960.96-34.09L960.96-34.09Q960.96-36.92 959.48-37.71L959.48-37.71L959.48-37.71Q958.00-38.50 954.55-38.50ZM1002.43-34.57L1002.43-32.29L1007.61-32.29L1007.61-19.46L1002.43-19.46L1002.43-17.18L1002.43-17.18Q1002.43-12.42 1001.47-9.14L1001.47-9.14L1001.47-9.14Q1000.50-5.87 998.40-3.83L998.40-3.83L998.40-3.83Q996.29-1.79 992.88-0.90L992.88-0.90L992.88-0.90Q989.46 0 984.49 0L984.49 0L984.49-10.28L984.49-10.28Q989.60-10.28 989.60-15.53L989.60-15.53L989.60-22.98L992.50-25.88L989.60-28.77L989.60-36.16L989.60-36.16Q989.60-41.40 984.49-41.40L984.49-41.40L984.49-51.75L984.49-51.75Q989.11-51.75 992.50-50.96L992.50-50.96L992.50-50.96Q995.88-50.16 998.08-48.23L998.08-48.23L998.08-48.23Q1000.29-46.30 1001.36-42.95L1001.36-42.95L1001.36-42.95Q1002.43-39.61 1002.43-34.57L1002.43-34.57Z" fill="#444" data-darkreader-inline-fill="" style="--darkreader-inline-fill:#33373a;"></path></g></g><style>text {
  font-size: 64px;
  font-family: Arial Black;
  dominant-baseline: central;
  text-anchor: middle;
}</style><style class="darkreader darkreader--sync" media="screen"></style></svg>