<svg width="1505.9" height="103.2" viewBox="0 0 1505.9 103.2" xmlns="http://www.w3.org/2000/svg"><g id="svgGroup" stroke-linecap="round" fill-rule="evenodd" font-size="9pt" stroke="#000" stroke-width="0.25mm" fill="none" style="stroke:#000;stroke-width:0.25mm;fill:none"><path d="M 307.4 14.2 L 306.6 16.2 A 21.847 21.847 0 0 0 303.201 14.751 A 29.102 29.102 0 0 0 300.05 13.9 Q 296.3 13.1 293 13.1 A 31.222 31.222 0 0 0 286.329 13.777 A 22.216 22.216 0 0 0 278.3 17.2 Q 272.4 21.3 272.4 28.7 A 10.234 10.234 0 0 0 273.023 32.328 A 9.17 9.17 0 0 0 275.1 35.55 A 20.286 20.286 0 0 0 279.74 39.05 A 24.613 24.613 0 0 0 281.75 40.05 A 64.061 64.061 0 0 0 284.507 41.188 Q 287.856 42.488 292.6 44 A 201.713 201.713 0 0 1 297.158 45.576 Q 301.822 47.256 304.95 48.7 Q 309.5 50.8 312.75 54.4 A 12.48 12.48 0 0 1 315.866 61.344 A 16.834 16.834 0 0 1 316 63.5 A 23.086 23.086 0 0 1 315.184 69.798 A 17.264 17.264 0 0 1 310.2 77.95 A 17.666 17.666 0 0 1 304.149 81.512 Q 299.211 83.3 292.1 83.3 A 33.325 33.325 0 0 1 286.239 82.811 Q 282.749 82.187 279.88 80.769 A 20.597 20.597 0 0 1 279.45 80.55 Q 274.2 77.8 271.45 73.45 Q 268.7 69.1 268.5 64.4 L 270.7 64.4 A 13.604 13.604 0 0 0 271.528 68.983 A 18.846 18.846 0 0 0 273.05 72.2 Q 275.4 76.2 280.25 78.85 Q 284.965 81.426 291.618 81.498 A 35.489 35.489 0 0 0 292 81.5 A 36.498 36.498 0 0 0 298.559 80.945 Q 303.974 79.955 307.85 77.2 A 13.74 13.74 0 0 0 313.249 69.12 Q 313.859 66.743 313.897 63.883 A 28.728 28.728 0 0 0 313.9 63.5 A 13.398 13.398 0 0 0 313.335 59.528 A 10.956 10.956 0 0 0 310.95 55.35 A 21.232 21.232 0 0 0 304.975 50.791 A 24.94 24.94 0 0 0 303.65 50.15 Q 300.727 48.84 296.518 47.372 A 176.931 176.931 0 0 0 292.1 45.9 A 178.599 178.599 0 0 1 287.878 44.497 Q 283.545 42.992 280.556 41.653 A 31.564 31.564 0 0 1 280.55 41.65 A 23.162 23.162 0 0 1 275.444 38.552 A 20.454 20.454 0 0 1 273.25 36.5 A 11.039 11.039 0 0 1 270.395 30.106 A 14.881 14.881 0 0 1 270.3 28.4 A 15.269 15.269 0 0 1 272.571 20.421 A 18.312 18.312 0 0 1 272.8 20.05 A 16.082 16.082 0 0 1 276.921 15.698 A 21.887 21.887 0 0 1 280.35 13.65 A 22.797 22.797 0 0 1 285.601 11.891 Q 288.052 11.373 290.876 11.243 A 41.966 41.966 0 0 1 292.8 11.2 A 56.568 56.568 0 0 1 296.102 11.29 Q 298.85 11.452 300.9 11.9 Q 304.1 12.6 307.4 14.2 Z M 418.3 14.2 L 417.5 16.2 A 21.847 21.847 0 0 0 414.101 14.751 A 29.102 29.102 0 0 0 410.95 13.9 Q 407.2 13.1 403.9 13.1 A 31.222 31.222 0 0 0 397.229 13.777 A 22.216 22.216 0 0 0 389.2 17.2 Q 383.3 21.3 383.3 28.7 A 10.234 10.234 0 0 0 383.923 32.328 A 9.17 9.17 0 0 0 386 35.55 A 20.286 20.286 0 0 0 390.64 39.05 A 24.613 24.613 0 0 0 392.65 40.05 A 64.061 64.061 0 0 0 395.407 41.188 Q 398.756 42.488 403.5 44 A 201.713 201.713 0 0 1 408.058 45.576 Q 412.722 47.256 415.85 48.7 Q 420.4 50.8 423.65 54.4 A 12.48 12.48 0 0 1 426.766 61.344 A 16.834 16.834 0 0 1 426.9 63.5 A 23.086 23.086 0 0 1 426.084 69.798 A 17.264 17.264 0 0 1 421.1 77.95 A 17.666 17.666 0 0 1 415.049 81.512 Q 410.111 83.3 403 83.3 A 33.325 33.325 0 0 1 397.139 82.811 Q 393.649 82.187 390.78 80.769 A 20.597 20.597 0 0 1 390.35 80.55 Q 385.1 77.8 382.35 73.45 Q 379.6 69.1 379.4 64.4 L 381.6 64.4 A 13.604 13.604 0 0 0 382.428 68.983 A 18.846 18.846 0 0 0 383.95 72.2 Q 386.3 76.2 391.15 78.85 Q 395.865 81.426 402.518 81.498 A 35.489 35.489 0 0 0 402.9 81.5 A 36.498 36.498 0 0 0 409.459 80.945 Q 414.874 79.955 418.75 77.2 A 13.74 13.74 0 0 0 424.149 69.12 Q 424.759 66.743 424.797 63.883 A 28.728 28.728 0 0 0 424.8 63.5 A 13.398 13.398 0 0 0 424.235 59.528 A 10.956 10.956 0 0 0 421.85 55.35 A 21.232 21.232 0 0 0 415.875 50.791 A 24.94 24.94 0 0 0 414.55 50.15 Q 411.627 48.84 407.418 47.372 A 176.931 176.931 0 0 0 403 45.9 A 178.599 178.599 0 0 1 398.778 44.497 Q 394.445 42.992 391.456 41.653 A 31.564 31.564 0 0 1 391.45 41.65 A 23.162 23.162 0 0 1 386.344 38.552 A 20.454 20.454 0 0 1 384.15 36.5 A 11.039 11.039 0 0 1 381.295 30.106 A 14.881 14.881 0 0 1 381.2 28.4 A 15.269 15.269 0 0 1 383.471 20.421 A 18.312 18.312 0 0 1 383.7 20.05 A 16.082 16.082 0 0 1 387.821 15.698 A 21.887 21.887 0 0 1 391.25 13.65 A 22.797 22.797 0 0 1 396.501 11.891 Q 398.952 11.373 401.776 11.243 A 41.966 41.966 0 0 1 403.7 11.2 A 56.568 56.568 0 0 1 407.002 11.29 Q 409.75 11.452 411.8 11.9 Q 415 12.6 418.3 14.2 Z M 780.5 82.2 L 780.5 12.2 L 813.9 12.2 L 813.9 14.1 L 782.4 14.1 L 782.4 40.9 L 805.2 40.9 L 804.5 42.8 L 782.4 42.8 L 782.4 80.3 L 813.7 80.3 L 813.7 82.2 L 780.5 82.2 Z M 369.3 67 L 369.3 48 Q 366.3 53.3 360.6 55.5 Q 354.9 57.7 349.8 57.7 A 34.666 34.666 0 0 1 343.038 57.08 Q 337.086 55.895 333.05 52.45 Q 327.107 47.377 326.907 37.588 A 33.659 33.659 0 0 1 326.9 36.9 L 326.9 12.2 L 328.8 12.2 L 328.8 36.4 Q 328.8 43.963 332.239 48.715 A 15.49 15.49 0 0 0 334 50.75 A 16.154 16.154 0 0 0 340.062 54.375 Q 344.169 55.8 349.8 55.8 A 26.074 26.074 0 0 0 355.854 55.132 A 19.052 19.052 0 0 0 363.1 51.75 A 17.297 17.297 0 0 0 366.895 47.833 A 14.452 14.452 0 0 0 369.3 41.7 L 369.3 12.2 L 371.2 12.2 L 371.2 67.6 A 27.132 27.132 0 0 1 370.924 71.601 Q 370.616 73.659 369.967 75.347 A 12.732 12.732 0 0 1 368.75 77.75 Q 366.3 81.5 360.8 82.9 L 360.2 81.1 Q 360.483 81.006 362.815 80.199 A 3846.668 3846.668 0 0 0 363.1 80.1 Q 365.284 79.344 366.903 76.825 A 14.069 14.069 0 0 0 367.5 75.8 Q 368.952 73.057 369.233 69.014 A 29.091 29.091 0 0 0 369.3 67 Z M 206.2 82.2 L 183.6 45.6 L 173.7 54.5 L 173.7 82.2 L 171.8 82.2 L 171.8 12.2 L 173.7 12.2 L 173.7 52.1 L 197.4 30.2 L 198.8 31.5 L 185 44.2 Q 195.6 61.8 208.5 82.2 L 206.2 82.2 Z M 670.8 82.2 L 647.9 12.2 L 649.8 12.2 L 671.8 79.5 L 693.8 12.2 L 695.7 12.2 L 673 82.2 L 670.8 82.2 Z M 41.4 82.2 L 27.9 53.9 L 25.4 54.1 L 2 54.1 L 2 82.2 L 0 82.2 L 0 12.2 L 23.9 12.2 A 26.742 26.742 0 0 1 29.557 12.759 Q 33.04 13.514 35.628 15.285 A 14.392 14.392 0 0 1 38.6 18 Q 42.999 23.316 43.367 31.991 A 38.032 38.032 0 0 1 43.4 33.6 Q 43.4 39.7 40.45 45.5 A 14.456 14.456 0 0 1 34.342 51.669 A 21.816 21.816 0 0 1 29.8 53.5 L 43.5 82.2 L 41.4 82.2 Z M 1396.7 82.2 L 1396.7 47.5 A 17.305 17.305 0 0 0 1396.212 43.256 A 11.182 11.182 0 0 0 1391.7 36.6 Q 1386.7 33.1 1379.2 33.1 Q 1375.1 33.1 1370.95 34.1 A 35.098 35.098 0 0 0 1366.809 35.36 A 27.411 27.411 0 0 0 1363.6 36.8 L 1363.6 82.2 L 1361.7 82.2 L 1361.7 32.1 L 1363.6 32.1 L 1363.6 34.7 A 32.587 32.587 0 0 1 1375.869 31.323 A 39.242 39.242 0 0 1 1379 31.2 A 36.377 36.377 0 0 1 1383.38 31.448 Q 1385.679 31.728 1387.604 32.322 A 17.315 17.315 0 0 1 1390.1 33.3 Q 1398.6 37.2 1398.6 47.6 L 1398.6 82.2 L 1396.7 82.2 Z M 1283.7 33.9 L 1282.8 35.6 A 11.241 11.241 0 0 0 1282.613 35.509 Q 1282.128 35.278 1280.95 34.75 Q 1279.976 34.313 1278.573 33.899 A 36.401 36.401 0 0 0 1277.1 33.5 A 20.16 20.16 0 0 0 1273.653 32.962 A 24.43 24.43 0 0 0 1271.9 32.9 Q 1268.3 32.9 1264.95 34.2 Q 1261.6 35.5 1259.55 38.25 A 8.615 8.615 0 0 0 1257.917 42.422 Q 1257.771 43.606 1257.885 44.933 A 14.538 14.538 0 0 0 1257.9 45.1 Q 1258.1 47.7 1260.05 49.45 A 14.528 14.528 0 0 0 1263.535 51.748 A 17.283 17.283 0 0 0 1264.7 52.25 A 67.82 67.82 0 0 0 1266.593 52.95 Q 1268.9 53.769 1272.2 54.8 A 158.797 158.797 0 0 1 1275.658 55.896 Q 1279.209 57.069 1281.65 58.1 Q 1285.2 59.6 1287.7 62.45 A 9.942 9.942 0 0 1 1290.041 67.581 A 13.645 13.645 0 0 1 1290.2 69.7 A 12.856 12.856 0 0 1 1286.223 79.201 A 16.147 16.147 0 0 1 1285.75 79.65 A 14.183 14.183 0 0 1 1280.566 82.59 Q 1278.411 83.301 1275.789 83.557 A 31.878 31.878 0 0 1 1272.7 83.7 Q 1267.15 83.7 1263.07 81.851 A 17.435 17.435 0 0 1 1262.85 81.75 A 17.772 17.772 0 0 1 1259.5 79.726 A 13.439 13.439 0 0 1 1256.55 76.6 Q 1254.4 73.4 1254.2 69.5 L 1256.1 69.5 A 12.245 12.245 0 0 0 1260.059 77.621 A 16.279 16.279 0 0 0 1260.7 78.2 Q 1264.153 81.159 1270.038 81.686 A 29.89 29.89 0 0 0 1272.7 81.8 Q 1278.8 81.8 1282.85 79.218 A 13.91 13.91 0 0 0 1284 78.4 Q 1288.3 75 1288.3 69.8 A 10.015 10.015 0 0 0 1287.869 66.802 A 8.234 8.234 0 0 0 1286.05 63.65 Q 1283.8 61.2 1280.6 59.85 A 56.338 56.338 0 0 0 1278.375 58.972 Q 1275.86 58.035 1272.397 56.954 A 187.019 187.019 0 0 0 1271.9 56.8 A 161.56 161.56 0 0 1 1271.822 56.777 Q 1266.931 55.306 1263.965 54.077 A 39.548 39.548 0 0 1 1263.9 54.05 A 18.285 18.285 0 0 1 1259.446 51.431 A 16.95 16.95 0 0 1 1258.65 50.75 Q 1256.4 48.7 1256 45.7 A 3.477 3.477 0 0 1 1255.956 45.406 Q 1255.901 44.906 1255.9 44.02 A 28.156 28.156 0 0 1 1255.9 44 Q 1255.9 40.7 1257.6 37.75 A 11.271 11.271 0 0 1 1260.251 34.673 Q 1261.468 33.673 1263.05 32.85 A 16.054 16.054 0 0 1 1266.985 31.452 Q 1268.807 31.047 1270.927 30.939 A 30.993 30.993 0 0 1 1272.5 30.9 A 25.34 25.34 0 0 1 1275.394 31.057 A 18.686 18.686 0 0 1 1278.05 31.55 Q 1279.746 32 1280.963 32.498 A 12.255 12.255 0 0 1 1281.95 32.95 Q 1283.307 33.652 1283.657 33.872 A 1.981 1.981 0 0 1 1283.7 33.9 Z M 1326.8 33.9 L 1325.9 35.6 A 11.241 11.241 0 0 0 1325.713 35.509 Q 1325.228 35.278 1324.05 34.75 Q 1323.076 34.313 1321.673 33.899 A 36.401 36.401 0 0 0 1320.2 33.5 A 20.16 20.16 0 0 0 1316.753 32.962 A 24.43 24.43 0 0 0 1315 32.9 Q 1311.4 32.9 1308.05 34.2 Q 1304.7 35.5 1302.65 38.25 A 8.615 8.615 0 0 0 1301.017 42.422 Q 1300.871 43.606 1300.985 44.933 A 14.538 14.538 0 0 0 1301 45.1 Q 1301.2 47.7 1303.15 49.45 A 14.528 14.528 0 0 0 1306.635 51.748 A 17.283 17.283 0 0 0 1307.8 52.25 A 67.82 67.82 0 0 0 1309.693 52.95 Q 1312 53.769 1315.3 54.8 A 158.797 158.797 0 0 1 1318.758 55.896 Q 1322.309 57.069 1324.75 58.1 Q 1328.3 59.6 1330.8 62.45 A 9.942 9.942 0 0 1 1333.141 67.581 A 13.645 13.645 0 0 1 1333.3 69.7 A 12.856 12.856 0 0 1 1329.323 79.201 A 16.147 16.147 0 0 1 1328.85 79.65 A 14.183 14.183 0 0 1 1323.666 82.59 Q 1321.511 83.301 1318.889 83.557 A 31.878 31.878 0 0 1 1315.8 83.7 Q 1310.25 83.7 1306.17 81.851 A 17.435 17.435 0 0 1 1305.95 81.75 A 17.772 17.772 0 0 1 1302.6 79.726 A 13.439 13.439 0 0 1 1299.65 76.6 Q 1297.5 73.4 1297.3 69.5 L 1299.2 69.5 A 12.245 12.245 0 0 0 1303.159 77.621 A 16.279 16.279 0 0 0 1303.8 78.2 Q 1307.253 81.159 1313.138 81.686 A 29.89 29.89 0 0 0 1315.8 81.8 Q 1321.9 81.8 1325.95 79.218 A 13.91 13.91 0 0 0 1327.1 78.4 Q 1331.4 75 1331.4 69.8 A 10.015 10.015 0 0 0 1330.969 66.802 A 8.234 8.234 0 0 0 1329.15 63.65 Q 1326.9 61.2 1323.7 59.85 A 56.338 56.338 0 0 0 1321.475 58.972 Q 1318.96 58.035 1315.497 56.954 A 187.019 187.019 0 0 0 1315 56.8 A 161.56 161.56 0 0 1 1314.922 56.777 Q 1310.031 55.306 1307.065 54.077 A 39.548 39.548 0 0 1 1307 54.05 A 18.285 18.285 0 0 1 1302.546 51.431 A 16.95 16.95 0 0 1 1301.75 50.75 Q 1299.5 48.7 1299.1 45.7 A 3.477 3.477 0 0 1 1299.056 45.406 Q 1299.001 44.906 1299 44.02 A 28.156 28.156 0 0 1 1299 44 Q 1299 40.7 1300.7 37.75 A 11.271 11.271 0 0 1 1303.351 34.673 Q 1304.568 33.673 1306.15 32.85 A 16.054 16.054 0 0 1 1310.085 31.452 Q 1311.907 31.047 1314.027 30.939 A 30.993 30.993 0 0 1 1315.6 30.9 A 25.34 25.34 0 0 1 1318.494 31.057 A 18.686 18.686 0 0 1 1321.15 31.55 Q 1322.846 32 1324.063 32.498 A 12.255 12.255 0 0 1 1325.05 32.95 Q 1326.407 33.652 1326.757 33.872 A 1.981 1.981 0 0 1 1326.8 33.9 Z M 544.2 63.9 L 544.2 31.8 A 43.519 43.519 0 0 1 544.37 27.818 Q 544.805 23.103 546.35 20.3 A 16.74 16.74 0 0 1 550.37 15.505 A 21.679 21.679 0 0 1 552.9 13.7 Q 556.763 11.454 562.402 11.226 A 32.107 32.107 0 0 1 563.7 11.2 Q 567.5 11.2 571.2 12.05 Q 574.9 12.9 577.8 14.5 L 577 16.2 A 47.519 47.519 0 0 0 572.061 14.348 A 42.045 42.045 0 0 0 570.7 13.95 A 23.71 23.71 0 0 0 566.591 13.22 A 29.458 29.458 0 0 0 563.9 13.1 Q 557.3 13.1 551.7 16.75 A 10.901 10.901 0 0 0 547.612 21.839 Q 546.785 23.811 546.41 26.336 A 31.192 31.192 0 0 0 546.1 30.9 L 546.1 63.7 Q 546.1 72.6 550.8 77.05 A 15.612 15.612 0 0 0 557.828 80.821 Q 560.247 81.436 563.104 81.494 A 29.522 29.522 0 0 0 563.7 81.5 Q 569.461 81.5 576.577 79.197 A 68.717 68.717 0 0 0 579.7 78.1 L 580.3 79.9 A 57.099 57.099 0 0 1 572.252 82.262 A 41.421 41.421 0 0 1 563.7 83.2 Q 555 83.2 549.6 78.6 Q 545.099 74.766 544.35 67.111 A 32.982 32.982 0 0 1 544.2 63.9 Z M 539.7 82.2 L 529.9 54.1 L 503.1 54.1 L 493.2 82.2 L 491.3 82.2 L 515.8 12.2 L 517.2 12.2 L 541.8 82.2 L 539.7 82.2 Z M 736 82.2 L 726.2 54.1 L 699.4 54.1 L 689.5 82.2 L 687.6 82.2 L 712.1 12.2 L 713.5 12.2 L 738.1 82.2 L 736 82.2 Z M 1444.8 88.5 L 1444.8 74.7 A 18.834 18.834 0 0 1 1440.142 79.642 A 17.608 17.608 0 0 1 1437.45 81.25 A 21.808 21.808 0 0 1 1429.346 83.342 A 26.017 26.017 0 0 1 1427.6 83.4 A 25.909 25.909 0 0 1 1422.04 82.839 Q 1418.431 82.046 1415.733 80.132 A 15.112 15.112 0 0 1 1413.9 78.6 Q 1409.546 74.334 1409.061 66.594 A 31.907 31.907 0 0 1 1409 64.6 L 1409 49.7 A 23.458 23.458 0 0 1 1409.626 44.117 A 15.717 15.717 0 0 1 1414.3 36.05 A 18.033 18.033 0 0 1 1422.957 31.722 A 26 26 0 0 1 1428.3 31.2 Q 1433.7 31.2 1437.8 32.8 A 14.614 14.614 0 0 1 1443.25 36.579 A 18.887 18.887 0 0 1 1444.8 38.5 L 1444.8 32.1 L 1446.7 32.1 L 1446.7 88.6 Q 1446.7 92.836 1445.454 95.777 A 10.948 10.948 0 0 1 1444.2 98 A 11.762 11.762 0 0 1 1441.277 100.753 Q 1439.117 102.216 1436 103.2 L 1435.4 101.4 Q 1438.5 100.2 1440.35 99.05 Q 1442.032 98.004 1443.259 95.843 A 13.661 13.661 0 0 0 1443.5 95.4 A 9.891 9.891 0 0 0 1444.292 93.258 Q 1444.562 92.191 1444.688 90.915 A 24.55 24.55 0 0 0 1444.8 88.5 Z M 599.6 82.2 L 599.5 14.2 L 580.6 14.2 L 580.6 12.2 L 620.8 12.2 L 620.8 14.2 L 601.4 14.2 L 601.4 82.2 L 599.6 82.2 Z M 751.5 82.2 L 751.4 14.2 L 732.5 14.2 L 732.5 12.2 L 772.7 12.2 L 772.7 14.2 L 753.3 14.2 L 753.3 82.2 L 751.5 82.2 Z M 1210.7 68.8 L 1210.7 48.3 A 20.85 20.85 0 0 1 1211.324 43.05 A 14.479 14.479 0 0 1 1215.75 35.7 A 17.261 17.261 0 0 1 1223.666 31.756 A 25.16 25.16 0 0 1 1229.1 31.2 A 24.893 24.893 0 0 1 1234.347 31.72 Q 1238.989 32.721 1242.05 35.65 A 14.609 14.609 0 0 1 1246.199 43.187 A 21.87 21.87 0 0 1 1246.7 48 L 1246.7 57.5 L 1212.6 59.2 L 1212.6 69 A 15.324 15.324 0 0 0 1213.051 72.833 A 10.369 10.369 0 0 0 1216.6 78.45 Q 1220.588 81.69 1226.962 81.7 A 25.052 25.052 0 0 0 1227 81.7 A 26.93 26.93 0 0 0 1231.906 81.231 A 33.412 33.412 0 0 0 1235 80.5 A 38.085 38.085 0 0 0 1242.209 77.592 A 43.019 43.019 0 0 0 1243.3 77 L 1244.2 78.7 A 27.28 27.28 0 0 1 1238.305 81.508 A 32.508 32.508 0 0 1 1236 82.2 Q 1231.4 83.4 1226.8 83.4 A 24.291 24.291 0 0 1 1221.974 82.949 Q 1217.871 82.117 1215.05 79.75 A 11.614 11.614 0 0 1 1211.312 73.762 Q 1210.776 71.816 1210.71 69.476 A 23.658 23.658 0 0 1 1210.7 68.8 Z M 894.1 74.6 L 894.1 56.9 A 7.052 7.052 0 0 1 894.784 53.92 A 9.972 9.972 0 0 1 895.85 52.15 A 39.962 39.962 0 0 1 897.069 50.59 Q 897.661 49.873 898.214 49.285 A 17.934 17.934 0 0 1 899.05 48.45 A 411.411 411.411 0 0 0 899.553 47.981 Q 900.556 47.044 900.8 46.8 Q 898.1 44.1 896.2 41.65 A 9.962 9.962 0 0 1 894.97 39.635 A 7.338 7.338 0 0 1 894.3 36.6 L 894.3 18.1 Q 894.3 11.943 892.548 8.732 A 8.347 8.347 0 0 0 892.1 8 A 23.466 23.466 0 0 0 890.605 6.039 Q 889.833 5.137 889.062 4.463 A 10.136 10.136 0 0 0 887.7 3.45 A 397.818 397.818 0 0 1 886.931 2.977 Q 885.388 2.025 884.9 1.7 L 885.6 0 Q 890 2.5 892.25 5.05 Q 894.5 7.6 895.35 11.05 Q 895.921 13.368 896.108 16.702 A 62.539 62.539 0 0 1 896.2 20.2 L 896.2 36 A 7.117 7.117 0 0 0 896.676 38.484 Q 897.044 39.476 897.697 40.515 A 16.106 16.106 0 0 0 898.6 41.8 A 35.637 35.637 0 0 0 900.7 44.283 Q 901.797 45.46 902.894 46.386 A 20.703 20.703 0 0 0 903.4 46.8 A 66.075 66.075 0 0 0 900.811 49.271 Q 899.664 50.429 898.712 51.526 A 37.038 37.038 0 0 0 898.1 52.25 A 10.386 10.386 0 0 0 896.79 54.245 A 7.28 7.28 0 0 0 896 57.5 L 896 72.1 Q 896 78.6 895.15 82.35 A 15.913 15.913 0 0 1 893.89 85.947 A 12.991 12.991 0 0 1 892.1 88.65 Q 890.561 90.434 887.895 92.243 A 40.791 40.791 0 0 1 885.4 93.8 L 884.6 92.1 A 25.675 25.675 0 0 0 887.85 90.05 Q 889.447 88.854 890.576 87.532 A 12.21 12.21 0 0 0 892.05 85.4 Q 894.1 81.6 894.1 74.6 Z M 474.8 72.1 L 474.8 57.5 A 7.327 7.327 0 0 0 473.938 54.102 A 10.525 10.525 0 0 0 472.7 52.25 A 42.047 42.047 0 0 0 470.652 49.952 Q 469.563 48.811 468.278 47.609 A 73.899 73.899 0 0 0 467.4 46.8 A 23.692 23.692 0 0 0 469.65 44.755 Q 470.925 43.447 472.2 41.8 A 14.939 14.939 0 0 0 473.491 39.855 Q 474.08 38.782 474.356 37.761 A 6.73 6.73 0 0 0 474.6 36 L 474.6 20.2 Q 474.6 14.563 475.431 11.127 A 18.683 18.683 0 0 1 475.45 11.05 Q 476.3 7.6 478.55 5.05 Q 480.185 3.197 482.955 1.371 A 39.785 39.785 0 0 1 485.2 0 L 485.9 1.7 A 21.545 21.545 0 0 1 485.599 1.896 Q 484.849 2.377 482.895 3.587 A 784.37 784.37 0 0 1 482.55 3.8 A 10.41 10.41 0 0 0 479.611 6.572 A 14.632 14.632 0 0 0 478.15 9.1 A 16.625 16.625 0 0 0 477.022 12.595 Q 476.5 15.063 476.5 18.1 L 476.5 36.6 Q 476.5 39.2 474.6 41.65 Q 472.7 44.1 470 46.8 A 15.72 15.72 0 0 0 470.167 46.963 Q 470.561 47.345 471.643 48.371 A 911.556 911.556 0 0 0 472.15 48.85 Q 474 50.6 475.35 52.85 A 12.065 12.065 0 0 1 476.105 54.311 Q 476.7 55.705 476.7 56.9 L 476.7 74.6 A 38.496 38.496 0 0 0 476.895 78.616 Q 477.333 82.773 478.75 85.4 Q 480.8 89.2 486.2 92.1 L 485.4 93.8 A 40.488 40.488 0 0 1 482.812 92.18 Q 481.512 91.292 480.484 90.409 A 16.819 16.819 0 0 1 478.7 88.65 A 13.481 13.481 0 0 1 476.24 84.378 A 17.055 17.055 0 0 1 475.65 82.35 Q 474.882 78.963 474.808 73.331 A 93.434 93.434 0 0 1 474.8 72.1 Z M 1051.7 82.2 L 1051.7 12.2 L 1076.3 12.2 A 24.685 24.685 0 0 1 1081.764 12.766 Q 1087.253 14.013 1090.45 18 A 19.963 19.963 0 0 1 1094.078 25.291 Q 1094.876 28.194 1095.051 31.632 A 38.806 38.806 0 0 1 1095.1 33.6 A 29.593 29.593 0 0 1 1094.32 40.56 A 22.271 22.271 0 0 1 1090.95 48.15 A 12.072 12.072 0 0 1 1085.678 52.295 Q 1081.499 54.1 1075 54.1 L 1053.6 54.1 L 1053.6 82.2 L 1051.7 82.2 Z M 827 82.2 L 827 12.1 L 845.8 12.1 Q 854.356 12.1 859.844 15.654 A 17.948 17.948 0 0 1 863.05 18.3 Q 869 24.5 869 34.8 L 869 62.2 Q 869 82.2 847.8 82.2 L 827 82.2 Z M 938.1 93.6 L 970.5 0.5 L 972.5 0.5 L 940.1 93.6 L 938.1 93.6 Z M 978.6 93.6 L 1011 0.5 L 1013 0.5 L 980.6 93.6 L 978.6 93.6 Z M 1172.5 64.2 L 1172.5 51.4 A 30.22 30.22 0 0 1 1173.008 45.676 Q 1173.654 42.331 1175.121 39.737 A 15.429 15.429 0 0 1 1177.7 36.35 A 17.58 17.58 0 0 1 1188.49 31.339 A 23.945 23.945 0 0 1 1191.1 31.2 A 29.155 29.155 0 0 1 1199.592 32.513 A 37.674 37.674 0 0 1 1204.5 34.4 L 1203.8 36.4 A 31.512 31.512 0 0 0 1197.866 34.031 A 24.266 24.266 0 0 0 1191.3 33.1 A 19.45 19.45 0 0 0 1185.391 33.961 A 16.038 16.038 0 0 0 1179.2 37.6 A 14.373 14.373 0 0 0 1175.254 44.207 Q 1174.574 46.536 1174.435 49.34 A 29.648 29.648 0 0 0 1174.4 50.8 L 1174.4 65.3 A 27.257 27.257 0 0 0 1174.398 65.624 Q 1174.398 73.775 1179.35 77.55 Q 1184.253 81.288 1191.937 81.397 A 32.718 32.718 0 0 0 1192.4 81.4 Q 1198.3 81.4 1204.2 79.7 L 1204.7 81.6 A 50.27 50.27 0 0 1 1196.364 83.044 A 43.56 43.56 0 0 1 1192.7 83.2 A 40.185 40.185 0 0 1 1188.922 83.033 Q 1185.957 82.752 1183.7 82 A 20.531 20.531 0 0 1 1179.769 80.22 Q 1177.289 78.742 1175.717 76.664 A 12.456 12.456 0 0 1 1175.15 75.85 A 14.733 14.733 0 0 1 1173.459 72.011 Q 1172.92 70.155 1172.684 67.916 A 35.521 35.521 0 0 1 1172.5 64.2 Z M 846.8 14.2 L 828.9 14.2 L 828.9 80.2 L 846.8 80.2 Q 852.1 80.2 856.35 79.05 A 12.679 12.679 0 0 0 861.385 76.304 A 17.905 17.905 0 0 0 863.85 73.65 A 13.507 13.507 0 0 0 865.878 69.712 Q 867.091 66.102 867.1 60.88 A 45.365 45.365 0 0 0 867.1 60.8 L 867.1 35.4 A 31.036 31.036 0 0 0 866.543 29.315 Q 865.295 23.08 861.25 19.45 A 20.39 20.39 0 0 0 848.778 14.272 A 26.681 26.681 0 0 0 846.8 14.2 Z M 231.8 69 L 231.8 12.2 L 233.7 12.2 L 233.7 32.1 L 249.4 32.1 L 248.5 34 L 233.7 34 L 233.7 69 A 22.552 22.552 0 0 0 233.889 72.028 Q 234.338 75.331 235.85 77.3 Q 237.456 79.392 240.653 80.814 A 23.099 23.099 0 0 0 243 81.7 L 242.4 83.5 A 20.467 20.467 0 0 1 238.934 82.184 Q 235.946 80.704 234.3 78.4 Q 232.203 75.464 231.865 70.84 A 25.246 25.246 0 0 1 231.8 69 Z M 145.2 69 L 145.2 12.2 L 147.1 12.2 L 147.1 32.1 L 162.8 32.1 L 161.9 34 L 147.1 34 L 147.1 69 A 22.552 22.552 0 0 0 147.289 72.028 Q 147.738 75.331 149.25 77.3 Q 150.856 79.392 154.053 80.814 A 23.099 23.099 0 0 0 156.4 81.7 L 155.8 83.5 A 20.467 20.467 0 0 1 152.334 82.184 Q 149.346 80.704 147.7 78.4 Q 145.603 75.464 145.265 70.84 A 25.246 25.246 0 0 1 145.2 69 Z M 632.4 82.2 L 632.4 14.3 L 623.8 14.1 L 623.8 12.2 L 634.3 12.2 L 634.3 82.2 L 632.4 82.2 Z M 1105.1 82.2 L 1105.1 32.1 L 1107 32.1 L 1107 37.4 A 19.253 19.253 0 0 1 1118.226 31.635 A 27.453 27.453 0 0 1 1122.6 31.3 Q 1126.3 31.3 1130.1 32.1 L 1129.5 34.2 Q 1126.1 33.2 1122.5 33.2 A 23.741 23.741 0 0 0 1117.386 33.734 A 20.42 20.42 0 0 0 1114.75 34.5 Q 1111.2 35.8 1109.1 37.9 Q 1107.414 39.586 1107.082 41.401 A 4.981 4.981 0 0 0 1107 42.3 L 1107 82.2 L 1105.1 82.2 Z M 53.5 63.8 L 53.5 50.6 A 29.827 29.827 0 0 1 53.998 44.971 Q 55.054 39.482 58.35 36.05 Q 62.831 31.385 70.938 31.029 A 31.1 31.1 0 0 1 72.3 31 A 23.149 23.149 0 0 1 78.005 31.663 A 15.892 15.892 0 0 1 85.9 36.25 A 17.515 17.515 0 0 1 90.052 44.078 Q 90.8 47.045 90.8 50.6 L 90.8 63.8 A 25.192 25.192 0 0 1 90.011 70.259 A 19.024 19.024 0 0 1 86.2 77.7 A 14.62 14.62 0 0 1 78.673 82.41 Q 76.224 83.089 73.278 83.184 A 30.209 30.209 0 0 1 72.3 83.2 A 24.773 24.773 0 0 1 66.748 82.617 Q 62.952 81.744 60.227 79.565 A 14.596 14.596 0 0 1 58.25 77.65 A 19.603 19.603 0 0 1 53.711 67.179 A 26.244 26.244 0 0 1 53.5 63.8 Z M 99.6 63.8 L 99.6 50.6 A 29.827 29.827 0 0 1 100.098 44.971 Q 101.154 39.482 104.45 36.05 Q 108.931 31.385 117.038 31.029 A 31.1 31.1 0 0 1 118.4 31 A 23.149 23.149 0 0 1 124.105 31.663 A 15.892 15.892 0 0 1 132 36.25 A 17.515 17.515 0 0 1 136.152 44.078 Q 136.9 47.045 136.9 50.6 L 136.9 63.8 A 25.192 25.192 0 0 1 136.111 70.259 A 19.024 19.024 0 0 1 132.3 77.7 A 14.62 14.62 0 0 1 124.773 82.41 Q 122.324 83.089 119.378 83.184 A 30.209 30.209 0 0 1 118.4 83.2 A 24.773 24.773 0 0 1 112.848 82.617 Q 109.052 81.744 106.327 79.565 A 14.596 14.596 0 0 1 104.35 77.65 A 19.603 19.603 0 0 1 99.811 67.179 A 26.244 26.244 0 0 1 99.6 63.8 Z M 1127.7 63.8 L 1127.7 50.6 A 29.827 29.827 0 0 1 1128.198 44.971 Q 1129.254 39.482 1132.55 36.05 Q 1137.031 31.385 1145.138 31.029 A 31.1 31.1 0 0 1 1146.5 31 A 23.149 23.149 0 0 1 1152.205 31.663 A 15.892 15.892 0 0 1 1160.1 36.25 A 17.515 17.515 0 0 1 1164.252 44.078 Q 1165 47.045 1165 50.6 L 1165 63.8 A 25.192 25.192 0 0 1 1164.211 70.259 A 19.024 19.024 0 0 1 1160.4 77.7 A 14.62 14.62 0 0 1 1152.873 82.41 Q 1150.424 83.089 1147.478 83.184 A 30.209 30.209 0 0 1 1146.5 83.2 A 24.773 24.773 0 0 1 1140.948 82.617 Q 1137.152 81.744 1134.427 79.565 A 14.596 14.596 0 0 1 1132.45 77.65 A 19.603 19.603 0 0 1 1127.911 67.179 A 26.244 26.244 0 0 1 1127.7 63.8 Z M 1076.4 14.2 L 1053.6 14.2 L 1053.6 52.2 L 1074.8 52.2 A 26.22 26.22 0 0 0 1082.082 51.278 Q 1090.247 48.914 1092.416 40.488 A 27.687 27.687 0 0 0 1093.2 33.6 A 31.775 31.775 0 0 0 1092.721 27.913 Q 1091.808 22.895 1089.15 19.45 A 12.784 12.784 0 0 0 1082.38 14.969 Q 1079.73 14.2 1076.4 14.2 Z M 23.8 14.2 L 2 14.2 L 2 52.2 L 23.8 52.2 Q 32.9 52.2 37.15 46.7 Q 41.4 41.2 41.4 33.6 A 30.651 30.651 0 0 0 40.921 28.004 Q 39.94 22.727 36.95 19.3 A 14.23 14.23 0 0 0 29.727 14.917 Q 27.396 14.29 24.606 14.211 A 28.683 28.683 0 0 0 23.8 14.2 Z M 1410.9 50.2 L 1410.9 65.5 A 19.851 19.851 0 0 0 1411.548 70.705 A 14.762 14.762 0 0 0 1415.15 77.15 Q 1418.935 81.113 1425.854 81.547 A 27.935 27.935 0 0 0 1427.6 81.6 A 20.903 20.903 0 0 0 1434.186 80.507 A 24.441 24.441 0 0 0 1435.45 80.05 Q 1439.4 78.5 1442.1 75.05 A 12.341 12.341 0 0 0 1444.412 70.012 A 17.769 17.769 0 0 0 1444.8 66.2 L 1444.8 42.5 A 13.93 13.93 0 0 0 1442.176 38.151 A 12.67 12.67 0 0 0 1438.5 35.35 Q 1434.1 33.1 1428.3 33.1 Q 1421.9 33.1 1416.4 36.85 A 11.53 11.53 0 0 0 1412.069 42.593 Q 1411.32 44.631 1411.051 47.18 A 28.799 28.799 0 0 0 1410.9 50.2 Z M 55.4 50.2 L 55.4 63.8 A 21.632 21.632 0 0 0 56.346 70.319 A 18.214 18.214 0 0 0 59.5 76.25 Q 63.29 81.011 71.012 81.371 A 27.691 27.691 0 0 0 72.3 81.4 A 22.137 22.137 0 0 0 77.13 80.907 Q 81.981 79.822 84.8 76.35 A 18.152 18.152 0 0 0 88.644 67.397 A 24.423 24.423 0 0 0 88.9 63.8 L 88.9 50.2 Q 88.9 41.6 84.15 37.25 A 16.444 16.444 0 0 0 74.144 32.977 A 21.746 21.746 0 0 0 72.3 32.9 Q 65 32.9 60.2 37.25 Q 55.4 41.6 55.4 50.2 Z M 101.5 50.2 L 101.5 63.8 A 21.632 21.632 0 0 0 102.446 70.319 A 18.214 18.214 0 0 0 105.6 76.25 Q 109.39 81.011 117.112 81.371 A 27.691 27.691 0 0 0 118.4 81.4 A 22.137 22.137 0 0 0 123.23 80.907 Q 128.081 79.822 130.9 76.35 A 18.152 18.152 0 0 0 134.744 67.397 A 24.423 24.423 0 0 0 135 63.8 L 135 50.2 Q 135 41.6 130.25 37.25 A 16.444 16.444 0 0 0 120.244 32.977 A 21.746 21.746 0 0 0 118.4 32.9 Q 111.1 32.9 106.3 37.25 Q 101.5 41.6 101.5 50.2 Z M 1129.6 50.2 L 1129.6 63.8 A 21.632 21.632 0 0 0 1130.546 70.319 A 18.214 18.214 0 0 0 1133.7 76.25 Q 1137.49 81.011 1145.212 81.371 A 27.691 27.691 0 0 0 1146.5 81.4 A 22.137 22.137 0 0 0 1151.33 80.907 Q 1156.181 79.822 1159 76.35 A 18.152 18.152 0 0 0 1162.844 67.397 A 24.423 24.423 0 0 0 1163.1 63.8 L 1163.1 50.2 Q 1163.1 41.6 1158.35 37.25 A 16.444 16.444 0 0 0 1148.344 32.977 A 21.746 21.746 0 0 0 1146.5 32.9 Q 1139.2 32.9 1134.4 37.25 Q 1129.6 41.6 1129.6 50.2 Z M 217.1 82.2 L 217.1 32.1 L 219 32.1 L 219 82.2 L 217.1 82.2 Z M 1345 82.2 L 1345 32.1 L 1346.9 32.1 L 1346.9 82.2 L 1345 82.2 Z M 516.5 16.2 L 503.8 52.2 L 529.2 52.2 L 516.5 16.2 Z M 712.8 16.2 L 700.1 52.2 L 725.5 52.2 L 712.8 16.2 Z M 1212.6 48.2 L 1212.6 57.4 L 1244.8 55.6 L 1244.8 47.9 A 21.094 21.094 0 0 0 1244.411 43.705 Q 1243.456 39.003 1240.15 36.55 Q 1235.5 33.1 1229 33.1 Q 1222.3 33.1 1217.45 36.75 A 11.603 11.603 0 0 0 1213.199 43.229 Q 1212.675 45.179 1212.609 47.522 A 24.226 24.226 0 0 0 1212.6 48.2 Z M 255.179 81.779 A 1.431 1.431 0 0 0 256.2 82.2 A 1.409 1.409 0 0 0 256.787 82.077 A 1.568 1.568 0 0 0 257.25 81.75 A 1.878 1.878 0 0 0 257.279 81.721 A 1.431 1.431 0 0 0 257.7 80.7 A 1.409 1.409 0 0 0 257.577 80.113 A 1.568 1.568 0 0 0 257.25 79.65 A 1.878 1.878 0 0 0 257.221 79.621 A 1.431 1.431 0 0 0 256.2 79.2 A 1.409 1.409 0 0 0 255.613 79.323 A 1.568 1.568 0 0 0 255.15 79.65 A 1.878 1.878 0 0 0 255.121 79.679 A 1.431 1.431 0 0 0 254.7 80.7 A 1.409 1.409 0 0 0 254.823 81.287 A 1.568 1.568 0 0 0 255.15 81.75 A 1.878 1.878 0 0 0 255.179 81.779 Z M 1450.979 81.779 A 1.431 1.431 0 0 0 1452 82.2 A 1.409 1.409 0 0 0 1452.587 82.077 A 1.568 1.568 0 0 0 1453.05 81.75 A 1.878 1.878 0 0 0 1453.079 81.721 A 1.431 1.431 0 0 0 1453.5 80.7 A 1.409 1.409 0 0 0 1453.377 80.113 A 1.568 1.568 0 0 0 1453.05 79.65 A 1.878 1.878 0 0 0 1453.021 79.621 A 1.431 1.431 0 0 0 1452 79.2 A 1.409 1.409 0 0 0 1451.413 79.323 A 1.568 1.568 0 0 0 1450.95 79.65 A 1.878 1.878 0 0 0 1450.921 79.679 A 1.431 1.431 0 0 0 1450.5 80.7 A 1.409 1.409 0 0 0 1450.623 81.287 A 1.568 1.568 0 0 0 1450.95 81.75 A 1.878 1.878 0 0 0 1450.979 81.779 Z M 1464.079 81.779 A 1.431 1.431 0 0 0 1465.1 82.2 A 1.409 1.409 0 0 0 1465.687 82.077 A 1.568 1.568 0 0 0 1466.15 81.75 A 1.878 1.878 0 0 0 1466.179 81.721 A 1.431 1.431 0 0 0 1466.6 80.7 A 1.409 1.409 0 0 0 1466.477 80.113 A 1.568 1.568 0 0 0 1466.15 79.65 A 1.878 1.878 0 0 0 1466.121 79.621 A 1.431 1.431 0 0 0 1465.1 79.2 A 1.409 1.409 0 0 0 1464.513 79.323 A 1.568 1.568 0 0 0 1464.05 79.65 A 1.878 1.878 0 0 0 1464.021 79.679 A 1.431 1.431 0 0 0 1463.6 80.7 A 1.409 1.409 0 0 0 1463.723 81.287 A 1.568 1.568 0 0 0 1464.05 81.75 A 1.878 1.878 0 0 0 1464.079 81.779 Z M 1477.179 81.779 A 1.431 1.431 0 0 0 1478.2 82.2 A 1.409 1.409 0 0 0 1478.787 82.077 A 1.568 1.568 0 0 0 1479.25 81.75 A 1.878 1.878 0 0 0 1479.279 81.721 A 1.431 1.431 0 0 0 1479.7 80.7 A 1.409 1.409 0 0 0 1479.577 80.113 A 1.568 1.568 0 0 0 1479.25 79.65 A 1.878 1.878 0 0 0 1479.221 79.621 A 1.431 1.431 0 0 0 1478.2 79.2 A 1.409 1.409 0 0 0 1477.613 79.323 A 1.568 1.568 0 0 0 1477.15 79.65 A 1.878 1.878 0 0 0 1477.121 79.679 A 1.431 1.431 0 0 0 1476.7 80.7 A 1.409 1.409 0 0 0 1476.823 81.287 A 1.568 1.568 0 0 0 1477.15 81.75 A 1.878 1.878 0 0 0 1477.179 81.779 Z M 1490.279 81.779 A 1.431 1.431 0 0 0 1491.3 82.2 A 1.409 1.409 0 0 0 1491.887 82.077 A 1.568 1.568 0 0 0 1492.35 81.75 A 1.878 1.878 0 0 0 1492.379 81.721 A 1.431 1.431 0 0 0 1492.8 80.7 A 1.409 1.409 0 0 0 1492.677 80.113 A 1.568 1.568 0 0 0 1492.35 79.65 A 1.878 1.878 0 0 0 1492.321 79.621 A 1.431 1.431 0 0 0 1491.3 79.2 A 1.409 1.409 0 0 0 1490.713 79.323 A 1.568 1.568 0 0 0 1490.25 79.65 A 1.878 1.878 0 0 0 1490.221 79.679 A 1.431 1.431 0 0 0 1489.8 80.7 A 1.409 1.409 0 0 0 1489.923 81.287 A 1.568 1.568 0 0 0 1490.25 81.75 A 1.878 1.878 0 0 0 1490.279 81.779 Z M 1503.379 81.779 A 1.431 1.431 0 0 0 1504.4 82.2 A 1.409 1.409 0 0 0 1504.987 82.077 A 1.568 1.568 0 0 0 1505.45 81.75 A 1.878 1.878 0 0 0 1505.479 81.721 A 1.431 1.431 0 0 0 1505.9 80.7 A 1.409 1.409 0 0 0 1505.777 80.113 A 1.568 1.568 0 0 0 1505.45 79.65 A 1.878 1.878 0 0 0 1505.421 79.621 A 1.431 1.431 0 0 0 1504.4 79.2 A 1.409 1.409 0 0 0 1503.813 79.323 A 1.568 1.568 0 0 0 1503.35 79.65 A 1.878 1.878 0 0 0 1503.321 79.679 A 1.431 1.431 0 0 0 1502.9 80.7 A 1.409 1.409 0 0 0 1503.023 81.287 A 1.568 1.568 0 0 0 1503.35 81.75 A 1.878 1.878 0 0 0 1503.379 81.779 Z M 217.574 13.809 A 1.479 1.479 0 0 0 218.1 13.9 A 1.16 1.16 0 0 0 218.658 13.759 A 1.474 1.474 0 0 0 219 13.5 A 1.329 1.329 0 0 0 219.309 13.026 A 1.479 1.479 0 0 0 219.4 12.5 A 1.16 1.16 0 0 0 219.259 11.942 A 1.474 1.474 0 0 0 219 11.6 A 1.636 1.636 0 0 0 218.846 11.464 A 1.191 1.191 0 0 0 218.1 11.2 Q 217.5 11.2 217.1 11.6 A 1.636 1.636 0 0 0 216.964 11.754 A 1.191 1.191 0 0 0 216.7 12.5 Q 216.7 13.1 217.1 13.5 A 1.329 1.329 0 0 0 217.574 13.809 Z M 1345.474 13.809 A 1.479 1.479 0 0 0 1346 13.9 A 1.16 1.16 0 0 0 1346.558 13.759 A 1.474 1.474 0 0 0 1346.9 13.5 A 1.329 1.329 0 0 0 1347.209 13.026 A 1.479 1.479 0 0 0 1347.3 12.5 A 1.16 1.16 0 0 0 1347.159 11.942 A 1.474 1.474 0 0 0 1346.9 11.6 A 1.636 1.636 0 0 0 1346.746 11.464 A 1.191 1.191 0 0 0 1346 11.2 Q 1345.4 11.2 1345 11.6 A 1.636 1.636 0 0 0 1344.864 11.754 A 1.191 1.191 0 0 0 1344.6 12.5 Q 1344.6 13.1 1345 13.5 A 1.329 1.329 0 0 0 1345.474 13.809 Z" vector-effect="non-scaling-stroke"/></g></svg>